<svg id="Filled_Line" viewBox="0 0 64 64" xmlns="http://www.w3.org/2000/svg"><path d="m37.15 60h-26.3c-1.04 0-1.91-.8-1.99-1.84l-2.85-36.16h36l-2.85 36.16c-.08 1.04-.95 1.84-1.99 1.84z" fill="#536882"/><rect fill="#b8c3d5" height="6" rx="1" width="40" x="4" y="18"/><path d="m33.51 38.19h32c1.1 0 2 .9 2 2v5h-36v-5c0-1.1.9-2 2-2z" fill="#d3dce5" transform="matrix(.241 .971 -.971 .241 78.06 -16.4)"/><path d="m34.5 30.08-2.05 24c-.04.52-.48.92-1 .92-.03 0-.06 0-.09 0-.55-.05-.96-.53-.91-1.08l2.05-24c.05-.55.52-.97 1.08-.91.55.05.96.53.91 1.08zm-20.1-1.08c-.55.05-.96.53-.91 1.08l2.05 24c.04.52.48.92 1 .92h.09c.55-.05.96-.53.91-1.08l-2.05-24c-.05-.55-.52-.97-1.08-.91zm1.11-15.08c.2.2.45.29.71.29s.51-.1.71-.29c.39-.39.39-1.02 0-1.41l-4.24-4.24c-.39-.39-1.02-.39-1.41 0s-.39 1.02 0 1.41l4.24 4.24zm8.49-2.93c.55 0 1-.45 1-1v-6c0-.55-.45-1-1-1s-1 .45-1 1v6c0 .55.45 1 1 1zm7.78 3.22c.26 0 .51-.1.71-.29l4.24-4.24c.39-.39.39-1.02 0-1.41s-1.02-.39-1.41 0l-4.24 4.24c-.39.39-.39 1.02 0 1.41.2.2.45.29.71.29zm-7.78 14.78c-.55 0-1 .45-1 1v24c0 .55.45 1 1 1s1-.45 1-1v-24c0-.55-.45-1-1-1zm32.77 19.13-.97.24 1.92 7.77c.19.78.07 1.58-.34 2.27s-1.07 1.17-1.85 1.36l-4.85 1.2c-.08.02-.16.03-.24.03-.18 0-.36-.05-.52-.14-.23-.14-.39-.36-.45-.62l-7.19-29.03-2.13 27.03c-.14 1.58-1.42 2.76-3 2.76h-26.3c-1.57 0-2.86-1.18-3-2.75l-2.62-33.25h-.24c-1.1 0-2-.9-2-2v-4c0-1.1.9-2 2-2h38c1.1 0 2 .9 2 2v4c0 .08-.01.16-.02.24l1.42-.35c1.61-.4 3.24.58 3.63 2.19l1.92 7.76.97-.24c.78-.19 1.58-.07 2.27.34s1.17 1.07 1.36 1.85l2.41 9.71c.4 1.61-.58 3.24-2.19 3.63zm-51.77-25.12h38v-4h-38zm35.76 2h-33.52l2.61 33.08c.04.52.48.92 1 .92h26.3c.53 0 .96-.4 1-.93l2.6-33.07zm15.03 31.62-7.7-31.06c-.06-.26-.23-.48-.45-.62-.23-.14-.5-.18-.76-.11l-3.88.96 8.18 33 3.88-.96c.54-.13.86-.68.73-1.21zm1.24-11.64-2.41-9.71c-.06-.26-.23-.48-.45-.62-.23-.14-.5-.18-.76-.11l-.97.24 2.89 11.65.97-.24c.54-.13.86-.68.73-1.21z" fill="#1a2c3d"/></svg>