<svg id="Flat" height="512" viewBox="0 0 64 64" width="512" xmlns="http://www.w3.org/2000/svg"><path d="m52 17h-40l2.64-11.45c.21-.91 1.02-1.55 1.95-1.55h30.82c.93 0 1.74.64 1.95 1.55z" fill="#536882"/><path d="m12 19 2.87 39.15c.08 1.05.95 1.85 1.99 1.85h30.27c1.05 0 1.92-.81 1.99-1.85l2.87-39.15z" fill="#536882"/><rect fill="#335068" height="6" rx="1" width="46" x="9" y="14"/><path d="m37.44 8h-10.88c-.92 0-1.72-.62-1.94-1.51l-.62-2.49h16l-.62 2.49c-.22.89-1.02 1.51-1.94 1.51z" fill="#b8c3d5"/><g fill="#335068"><path d="m32 52c-.55 0-1-.45-1-1v-22c0-.55.45-1 1-1s1 .45 1 1v22c0 .55-.45 1-1 1z"/><g><path d="m40.67 52s-.05 0-.08 0c-.55-.04-.96-.52-.92-1.07l1.65-22c.04-.55.52-.97 1.07-.92.55.04.96.52.92 1.07l-1.65 22c-.04.53-.48.93-1 .93z"/><path d="m23.33 52c-.52 0-.96-.4-1-.93l-1.65-22c-.04-.55.37-1.03.92-1.07.55-.05 1.03.37 1.07.92l1.65 22c.04.55-.37 1.03-.92 1.07-.03 0-.05 0-.08 0z"/></g></g></svg>