<svg id="Layer_1" enable-background="new 0 0 497 497" height="512" viewBox="0 0 497 497" width="512" xmlns="http://www.w3.org/2000/svg"><path d="m143.535 482.602-110.863-36.627c-19.501-6.443-32.672-24.666-32.672-45.203v-327.82c0-32.441 31.737-55.38 62.541-45.203l91.564 30.251c6.901 2.28 11.562 8.729 11.562 15.997v392.609c0 11.48-11.232 19.597-22.132 15.996z" fill="#f8d4a9"/><path d="m115.701 396.884c-20.803-11.117-41.425-26.058-51.858-47.907-13.927-29.165-12.607-64.089-12.519-95.637.102-36.715.276-73.35 1.873-110.042 1.626-37.344 7.489-114.679 7.915-115.974-30.348-9.017-61.112 13.688-61.112 45.628v327.82c0 20.538 13.171 38.76 32.672 45.203l110.863 36.627c10.901 3.601 22.132-4.516 22.132-15.996v-45.089c-18.032-7.951-33.651-15.914-49.966-24.633z" fill="#f5c07f"/><path d="m331.333 30.395v392.609c0 7.268-4.661 13.717-11.562 15.997l-131.973 43.602c-10.901 3.601-22.132-4.516-22.132-15.997v-392.61c0-7.268 4.661-13.717 11.562-15.997l131.973-43.602c10.901-3.6 22.132 4.517 22.132 15.998z" fill="#f5c07f"/><path d="m434.459 469.252-91.564-30.252c-6.901-2.28-11.562-8.729-11.562-15.997v-392.608c0-11.48 11.231-19.598 22.132-15.997l110.863 36.627c19.501 6.443 32.672 24.666 32.672 45.203v327.82c0 32.441-31.737 55.38-62.541 45.204z" fill="#f8d4a9"/><path d="m91.145 417.523c-2.188 0-4.357-.953-5.84-2.787-4.722-5.847-9.14-12.06-13.13-18.464-2.189-3.516-1.115-8.142 2.4-10.332 3.517-2.189 8.141-1.115 10.332 2.4 3.667 5.888 7.728 11.598 12.067 16.97 2.603 3.223 2.1 7.944-1.122 10.548-1.387 1.121-3.053 1.665-4.707 1.665zm238.464-41.115c-.493 0-.993-.05-1.495-.151-7.883-1.595-15.425-4.224-22.417-7.813-3.685-1.892-5.138-6.412-3.246-10.098 1.894-3.685 6.414-5.139 10.098-3.246 5.768 2.961 12.006 5.134 18.54 6.456 4.06.821 6.686 4.778 5.863 8.838-.72 3.557-3.848 6.014-7.343 6.014zm53.644-6.858c-2.841 0-5.557-1.621-6.82-4.371-1.729-3.765-.079-8.217 3.685-9.946 6.049-2.778 11.855-6.249 17.259-10.315 3.31-2.491 8.013-1.827 10.502 1.482 2.491 3.31 1.827 8.012-1.482 10.502-6.26 4.712-12.994 8.736-20.017 11.962-1.016.465-2.08.686-3.127.686zm-326.312-20.095c-3.338 0-6.383-2.244-7.257-5.625-1.89-7.314-3.344-14.797-4.322-22.24-.54-4.106 2.352-7.874 6.458-8.414 4.104-.532 7.873 2.351 8.413 6.459.899 6.84 2.236 13.718 3.975 20.442 1.036 4.01-1.375 8.102-5.385 9.138-.63.162-1.26.24-1.882.24zm217.33-20.946c-3.058 0-5.929-1.883-7.043-4.92-2.469-6.734-4.402-14.007-5.908-22.233-.746-4.075 1.951-7.982 6.025-8.729 4.075-.75 7.982 1.951 8.729 6.025 1.352 7.379 3.065 13.847 5.238 19.772 1.426 3.889-.571 8.197-4.46 9.623-.851.313-1.724.462-2.581.462zm160.859-13.103c-.976 0-1.967-.191-2.921-.596-3.814-1.615-5.598-6.017-3.982-9.83 2.604-6.151 4.684-12.68 6.18-19.404.9-4.044 4.91-6.59 8.95-5.692 4.044.9 6.592 4.907 5.692 8.95-1.693 7.609-4.052 15.01-7.01 21.994-1.211 2.86-3.988 4.578-6.909 4.578zm-380.901-42.051c-.446 0-.898-.04-1.354-.122-4.075-.743-6.776-4.648-6.034-8.724 1.346-7.384 3.152-14.779 5.369-21.98 1.219-3.961 5.423-6.18 9.374-4.962 3.959 1.219 6.181 5.416 4.962 9.374-2.043 6.638-3.708 13.453-4.947 20.258-.66 3.62-3.816 6.156-7.37 6.156zm208.035-20.458c-3.639 0-6.833-2.652-7.403-6.359-.339-2.198-.688-4.233-1.067-6.224-.906-4.752-2.053-9.462-3.406-13.997-1.185-3.969 1.072-8.146 5.041-9.331 3.972-1.189 8.147 1.073 9.332 5.041 1.498 5.021 2.766 10.228 3.768 15.478.413 2.166.792 4.374 1.157 6.75.631 4.094-2.177 7.924-6.271 8.554-.388.06-.772.088-1.151.088zm180.025-12.809c-3.539 0-6.688-2.515-7.363-6.12-1.239-6.617-2.983-13.377-5.185-20.093-1.29-3.937.855-8.173 4.791-9.463 3.938-1.289 8.173.856 9.463 4.791 2.405 7.339 4.314 14.742 5.675 22.003.763 4.071-1.92 7.99-5.991 8.753-.467.087-.932.129-1.39.129zm-359.226-37.263c-1.51 0-3.032-.454-4.354-1.398-3.355-2.396-4.145-7.051-1.775-10.418 4.256-6.253 9.096-12.207 14.42-17.751 2.87-2.987 7.618-3.082 10.604-.214 2.987 2.869 3.083 7.617.214 10.604-4.774 4.97-9.104 10.302-12.869 15.847-.034.05-.097.141-.132.188-1.462 2.049-3.768 3.142-6.108 3.142zm-.15-7.612.156.111zm148.439-11.361c-2.038 0-4.068-.826-5.549-2.452-2.343-2.574-4.837-5.029-7.412-7.297-2.464-2.17-5.034-4.218-7.64-6.09-3.365-2.415-4.134-7.102-1.718-10.466 2.416-3.367 7.103-4.134 10.466-1.718 3.009 2.159 5.971 4.521 8.805 7.017 2.987 2.63 5.879 5.476 8.593 8.458 2.788 3.063 2.564 7.807-.499 10.595-1.438 1.307-3.245 1.953-5.046 1.953zm-88.927-27.574c-3.176 0-6.124-2.032-7.143-5.22-1.261-3.945.916-8.166 4.862-9.427 2.312-.738 4.659-1.387 6.979-1.928 5.415-1.259 10.953-1.972 16.466-2.118 4.186-.13 7.587 3.157 7.697 7.297.11 4.141-3.156 7.587-7.297 7.697-4.505.12-9.035.704-13.465 1.733-1.927.449-3.884.99-5.815 1.607-.759.244-1.528.359-2.284.359z" fill="#da8c74"/><path d="m446.566 163.646-17.417-8.8 9.071-17.953c1.868-3.697.385-8.208-3.313-10.076-3.695-1.867-8.208-.386-10.076 3.313l-9.071 17.953-17.953-9.07c-3.695-1.867-8.208-.384-10.076 3.313s-.385 8.208 3.313 10.076l17.952 9.07-8.8 17.417c-1.868 3.697-.385 8.208 3.313 10.076 1.084.548 2.238.808 3.376.808 2.74 0 5.38-1.507 6.7-4.12l8.8-17.417 17.418 8.8c1.084.548 2.238.808 3.376.808 2.74 0 5.38-1.508 6.7-4.12 1.868-3.7.385-8.21-3.313-10.078z" fill="#eb6773"/></svg>